<?xml version="1.0" encoding="utf-8"?>
<!-- Generator: Adobe Illustrator 16.0.0, SVG Export Plug-In . SVG Version: 6.00 Build 0)  -->
<!DOCTYPE svg PUBLIC "-//W3C//DTD SVG 1.1//EN" "http://www.w3.org/Graphics/SVG/1.1/DTD/svg11.dtd">
<svg version="1.1" xmlns="http://www.w3.org/2000/svg" xmlns:xlink="http://www.w3.org/1999/xlink" x="0px" y="0px"
	 width="841.92px" height="595.2px" viewBox="0 0 841.92 595.2" enable-background="new 0 0 841.92 595.2" xml:space="preserve">
<g id="Layer_4">
	<path stroke="#000000" stroke-miterlimit="10" d="M336.46,97.434C268.082,80.1,248.96,78.6,219.335,81.85
		s-52.125,26.625-52.125,26.625c0.25,2-19.168,11.788-19.168,11.788c-29.25,0.167-58.333,23.915-52,31.332s7.917,2.333,11.75,3.25
		s26.333-5.833,42.166,7.428s14.25,52.408,14.25,52.408c-3.918,19.252,9.418,11.58,9.418,11.58
		c18.667-41.333,52.167-22.667,52.167-22.667l41-14c62.333-13.833,75.333-84.665,75.333-84.665S342.46,98.955,336.46,97.434z"/>
</g>
<g id="Layer_5">
	<path stroke="#000000" stroke-miterlimit="10" d="M164.126,248.266c0,0-26,101.5,129,208c155,106.5,272.5-16.5,270.5-29
		s49-138.167-116.332-264.167c0,0-68.001-45.333-96.001-45.333c0,0,0,67.333-113.333,95.333
		C237.96,213.1,188.793,225.435,164.126,248.266z"/>
</g>
<g id="Layer_6">
	<path stroke="#000000" stroke-miterlimit="10" d="M751.961,527.92l-178.667-90.319c29-95.334-11.014-146.333-11.014-146.333
		l223.2,212.065C785.48,503.333,747.389,488.164,751.961,527.92z"/>
</g>
<g id="Layer_7">
</g>
<g id="Layer_8" display="none">
	<path display="inline" fill="#141314" stroke="#000000" stroke-miterlimit="10" d="M218.648,518.328
		c49.713-55.307,99.409-35.414,99.409-35.414l2.758,33.191c-27.217-24.171-88.981-0.278-96.613,2.812
		c-0.511,0.206-0.779,0.319-0.779,0.319s-2.818-2.499-3.796-1.703"/>
</g>
</svg>
